<?xml version="1.0" encoding="UTF-8" standalone="no"?>
<svg
   xmlns:dc="http://purl.org/dc/elements/1.1/"
   xmlns:cc="http://creativecommons.org/ns#"
   xmlns:rdf="http://www.w3.org/1999/02/22-rdf-syntax-ns#"
   xmlns:svg="http://www.w3.org/2000/svg"
   xmlns="http://www.w3.org/2000/svg"
   xmlns:sodipodi="http://sodipodi.sourceforge.net/DTD/sodipodi-0.dtd"
   xmlns:inkscape="http://www.inkscape.org/namespaces/inkscape"
   height="1000"
   width="937.5"
   id="svg2"
   version="1.1"
   inkscape:version="0.48.5 r10040"
   sodipodi:docname="ic_download_dest.svg">
  <metadata
     id="metadata10">
    <rdf:RDF>
      <cc:Work
         rdf:about="">
        <dc:format>image/svg+xml</dc:format>
        <dc:type
           rdf:resource="http://purl.org/dc/dcmitype/StillImage" />
      </cc:Work>
    </rdf:RDF>
  </metadata>
  <defs
     id="defs8">
    <clipPath
       id="clipPath46">
      <path
         d="M 0,32 32,32 32,0 0,0 0,32 z"
         inkscape:connector-curvature="0"
         id="path48" />
    </clipPath>
    <clipPath
       id="clipPath980">
      <path
         d="m 5.38916,28.1929 21.80814,0 0,-24.32864 -21.80814,0 0,24.32864 z"
         inkscape:connector-curvature="0"
         id="path982" />
    </clipPath>
  </defs>
  <sodipodi:namedview
     pagecolor="#ffffff"
     bordercolor="#666666"
     borderopacity="1"
     objecttolerance="10"
     gridtolerance="10"
     guidetolerance="10"
     inkscape:pageopacity="0"
     inkscape:pageshadow="2"
     inkscape:window-width="822"
     inkscape:window-height="480"
     id="namedview6"
     showgrid="false"
     inkscape:zoom="0.1668772"
     inkscape:cx="468.75"
     inkscape:cy="500"
     inkscape:window-x="59"
     inkscape:window-y="34"
     inkscape:window-maximized="0"
     inkscape:current-layer="svg2" />
  <path
     style="fill:#333333;fill-opacity:1;fill-rule:nonzero;stroke:none"
     id="path172"
     inkscape:connector-curvature="0"
     d="m 895.95371,834.71825 -9.3526,0 0,-37.49023 9.3526,0 0,37.49023 z m -18.7251,0 -9.3826,0 0,-46.8628 9.3826,0 0,46.8628 z m -18.7451,0 -9.3926,0 0,-37.49023 9.3926,0 0,37.49023 z m -37.4903,0 -9.3825,0 0,-37.49023 9.3825,0 0,37.49023 z m -18.7351,0 -9.3725,0 0,-37.49023 9.3725,0 0,37.49023 z m 28.1177,-46.8628 9.3726,0 0,46.8628 -9.3726,0 0,-46.8628 z m 64.6857,-9.37257 -101.2838,0 c -5.7037,0 -10.3048,4.60106 -10.3048,10.27473 l 0,59.98439 -18.705,18.68495 0,15.63762 c 0,4.24022 5.0923,3.23782 5.0923,3.23782 4.8617,0 5.7137,4.06977 5.7137,5.67367 l 0,6.14477 c 0,4.38055 -1.3131,5.46313 -3.5084,7.20736 l -7.027,5.93428 0,64.42507 c 0,4.96193 4.0298,8.99161 9.0017,8.99161 l 122.3044,0 c 4.9619,0 9.0016,-4.02968 9.0016,-8.99161 l 0,-186.89986 c 0,-5.70374 -4.601,-10.3048 -10.2847,-10.3048" />
  <path
     style="fill:#050708;fill-opacity:1;stroke-width:0.2;stroke-linejoin:round"
     inkscape:connector-curvature="0"
     d="m 2527.4258,479.70094 -309.591,0 0,-341.61756 309.591,0 m -112.094,405.67085 -85.4039,0 0,-21.3511 85.4039,0 m 85.405,-448.37304 -256.213,0 c -35.379,0 -64.0539,28.67453 -64.0539,64.05329 l 0,384.31975 c 0,35.37877 28.6749,64.05329 64.0539,64.05329 l 256.213,0 c 35.379,0 64.053,-28.67452 64.053,-64.05329 l 0,-384.31975 c 0,-35.37876 -28.674,-64.05329 -64.053,-64.05329 z"
     id="path6105" />
  <path
     style="fill:#050708;fill-opacity:1;stroke-width:0.2;stroke-linejoin:round"
     inkscape:connector-curvature="0"
     d="m 684.96248,673.66296 -415.60484,0 0,-443.31251 415.60484,0 M 477.16006,784.49109 c -22.9418,0 -41.561,-18.6192 -41.561,-41.56061 0,-22.94141 18.6192,-41.56049 41.561,-41.56049 22.9418,0 41.561,18.61908 41.561,41.56049 0,22.94141 -18.6192,41.56061 -41.561,41.56061 z m 193.94962,-637.26174 -387.89923,0 c -38.26229,0 -69.26661,31.00419 -69.26661,69.26765 l 0,526.43348 c 0,38.26345 31.00432,69.26764 69.26661,69.26764 l 387.89923,0 c 38.26358,0 69.2679,-31.00419 69.2679,-69.26764 l 0,-526.43348 c 0,-38.26346 -31.00432,-69.26765 -69.2679,-69.26765 z"
     id="path6107" />
</svg>
