<?xml version="1.0" encoding="UTF-8" standalone="no"?>
<svg xmlns:dc="http://purl.org/dc/elements/1.1/" xmlns:cc="http://creativecommons.org/ns#" xmlns:rdf="http://www.w3.org/1999/02/22-rdf-syntax-ns#" xmlns="http://www.w3.org/2000/svg" xmlns:sodipodi="http://sodipodi.sourceforge.net/DTD/sodipodi-0.dtd"
	xmlns:inkscape="http://www.inkscape.org/namespaces/inkscape" height="1000" width="937.5" id="svg2" version="1.1" inkscape:version="0.48.5 r10040" sodipodi:docname="ic_download-source.svg">
	<metadata id="metadata10">
		<rdf:RDF>
			<cc:Work rdf:about="">
				<dc:format>image/svg+xml</dc:format>
				<dc:type rdf:resource="http://purl.org/dc/dcmitype/StillImage" />
			</cc:Work>
		</rdf:RDF>
	</metadata>
	<defs id="defs8">
		<clipPath id="clipPath980">
			<path id="path982" inkscape:connector-curvature="0" d="m 5.38916,28.1929 21.80814,0 0,-24.32864 -21.80814,0 0,24.32864 z" />
		</clipPath>
		<clipPath id="clipPath46">
			<path id="path48" inkscape:connector-curvature="0" d="M 0,32 32,32 32,0 0,0 0,32 z" />
		</clipPath>
	</defs>
	<sodipodi:namedview pagecolor="#ffffff" bordercolor="#666666" borderopacity="1" objecttolerance="10" gridtolerance="10" guidetolerance="10" inkscape:pageopacity="0" inkscape:pageshadow="2" inkscape:window-width="1320" inkscape:window-height="1148"
		id="namedview6" showgrid="false" inkscape:zoom="0.059" inkscape:cx="2971.7011" inkscape:cy="1992.5522" inkscape:window-x="324" inkscape:window-y="24" inkscape:window-maximized="0" inkscape:current-layer="svg2" />
	<path style="fill:#333333;fill-opacity:1;fill-rule:nonzero;stroke:none" id="path172" inkscape:connector-curvature="0"
		d="m 1629.4108,-750.40197 -19.501,0 0,-78.1711 19.501,0 0,78.1711 z m -39.0438,0 -19.5637,0 0,-97.7139 19.5637,0 0,97.7139 z m -39.0855,0 -19.5846,0 0,-78.1711 19.5846,0 0,78.1711 z m -78.1711,0 -19.5637,0 0,-78.1711 19.5637,0 0,78.1711 z m -39.0647,0 -19.5428,0 0,-78.1711 19.5428,0 0,78.1711 z m 58.6283,-97.7139 19.5428,0 0,97.7139 -19.5428,0 0,-97.7139 z m 134.8765,-19.5428 -211.1873,0 c -11.8929,0 -21.4866,9.5937 -21.4866,21.4239 l 0,125.0738 -39.002,38.9601 0,32.6061 c 0,8.8413 10.6179,6.7512 10.6179,6.7512 10.1372,0 11.9138,8.4859 11.9138,11.8302 l 0,12.8125 c 0,9.1339 -2.7381,11.3912 -7.3155,15.0281 l -14.6519,12.3736 0,134.3331 c 0,10.3462 8.4024,18.7485 18.7695,18.7485 l 255.0175,0 c 10.3462,0 18.7694,-8.4023 18.7694,-18.7485 l 0,-389.706 c 0,-11.8929 -9.5937,-21.4866 -21.4448,-21.4866" />
	<g id="g536" transform="matrix(20.901364,0,0,-20.901364,387.08638,-1460.181)">
		<path style="fill:#333333;fill-opacity:1;fill-rule:nonzero;stroke:none" id="path538" inkscape:connector-curvature="0"
			d="m 0,0 c -0.685,-2.495 -2.21,-4.642 -4.26,-6.11 l -1.506,5.048 -0.791,0.226 -1.754,-0.006 -1.061,0.626 0.06,1.242 1.424,2.8 -0.069,0.586 0.072,0.478 0.93,0.37 -0.059,0.263 -0.173,0.29 -0.016,0.205 2.15,1.585 0,0.303 -0.765,0.589 -0.077,0.287 1.628,2.209 0.621,0.267 0.34,-0.022 c 0.406,-0.364 0.791,-0.749 1.139,-1.167 l -0.148,-0.045 0.404,-0.414 0.07,0.03 C -0.894,8.381 -0.197,6.921 0.148,5.326 L 0.127,5.244 0.187,5.123 C 0.32,4.447 0.398,3.747 0.405,3.03 0.412,2.021 0.273,1.046 0.029,0.114 L -0.057,0.062 0,0 z m -10.979,9.04 -0.255,0.729 0.096,0.691 0.401,0.94 -0.234,1.561 -0.807,0.105 -0.115,0.209 0.058,0.284 0.296,0.425 0.145,0.079 c 0.19,0.011 0.377,0.031 0.569,0.033 1.457,0.01 2.846,-0.267 4.124,-0.765 l -0.737,-1.974 -3.141,-2.717 -0.4,0.4 z m -4.145,0.311 -0.146,-0.092 -0.463,0.002 -0.069,0.072 0.38,0.477 0.102,-0.025 0.102,-0.149 0.094,-0.285 z m 3.761,-14.426 -1.219,-0.9 -1.371,-1.755 c -0.793,0.239 -1.544,0.569 -2.251,0.969 l -0.039,1.405 -1.31,2.534 0.021,0.494 0.376,0.901 -0.009,0.607 -0.413,0.457 -3.022,1.333 -1.004,1.705 -0.275,0.101 -0.005,-0.017 c -0.001,0.037 -0.006,0.072 -0.006,0.107 -0.023,2.96 1.12,5.652 2.989,7.662 l 0.343,-0.191 1.9,0.391 0.224,0.13 0.051,-0.103 -0.135,-0.254 -0.025,-0.111 1.319,1.839 0.096,0.036 0.086,10e-4 0.077,-0.032 0.068,-0.067 -0.831,-1.547 0.319,-0.3 0.45,0.308 0.1,1.388 0.567,0.179 -0.271,-0.445 0.842,0.477 0.293,-0.068 0.03,-0.14 -0.537,-0.096 1.013,-0.862 0.393,-0.674 -0.51,-0.56 0.082,-0.095 -0.371,-0.586 -0.089,0.005 -0.19,-0.101 -0.873,0.549 0.876,0.716 -0.13,0.289 -0.835,0.528 -0.268,-0.756 -1.81,-1.404 -0.593,-0.889 0.503,-0.573 0.815,-0.375 0.343,-0.308 0.712,1.822 0.275,0.265 1.221,-0.589 0.14,0.019 1.003,-2.424 -0.301,-0.113 -0.373,0.018 -0.121,0.162 0.168,0.118 0.094,0.124 0.021,0.128 -0.055,0.137 -1.53,-0.434 0.602,-0.445 0.338,-0.043 -2.327,-1.297 -1.055,-1.534 0.008,-0.806 -0.389,0.091 -0.185,0.529 -1.258,0.234 -0.504,-0.28 -0.425,-0.576 -0.083,-0.312 0.047,-0.38 0.243,-0.26 0.674,0.325 0.216,-0.026 0.822,-1.386 2.706,-0.092 1.153,-0.438 0.935,-1.225 1.598,-0.474 0.557,-0.413 -0.711,-2.327 z m -10.272,6.924 -0.224,0.502 c -0.002,0.037 -0.006,0.074 -0.006,0.111 l 0.239,-0.41 -0.009,-0.203 z m 3.092,9.011 0.326,0.227 -0.059,0.06 c 0.341,0.315 0.701,0.614 1.08,0.884 l 0.054,-0.02 0.54,0.105 -0.016,-0.603 -0.623,-0.671 -0.799,-0.368 -0.543,0.31 0.04,0.076 z m 2.175,0.905 0.416,0.459 0.162,-0.083 -0.061,-0.298 -0.216,-0.256 -0.303,0.045 0.002,0.133 z m 1.192,1.413 0.048,-0.071 -0.135,-0.164 -0.245,-0.105 -0.226,-0.014 -0.044,0.059 c 0.199,0.101 0.397,0.207 0.602,0.295 m 0.477,0.104 0.232,-0.046 0.805,-0.457 0.193,-0.029 -0.322,-0.31 -0.521,0.071 -0.407,0.323 0.02,0.448 z m 1.218,0.23 0.221,0.291 c 0.369,0.085 0.744,0.152 1.128,0.2 l -1.2,-0.784 -0.619,-0.025 0.47,0.318 z m 6.762,-3.88 -0.316,-0.246 -0.493,0.047 -0.04,0.1 0.015,0.455 0.366,-0.081 0.382,0.086 0.18,-0.072 -0.094,-0.289 z m 0.095,-2.72 -0.028,-0.35 -0.506,-0.117 -0.214,0.539 -0.004,1.052 0.752,-1.124 z m -4.118,8.491 c -6.825,0 -12.36,-5.533 -12.36,-12.359 0,-6.826 5.535,-12.358 12.36,-12.358 6.825,0 12.357,5.532 12.357,12.358 0,6.826 -5.532,12.359 -12.357,12.359" />
	</g>
	<g id="g762" transform="matrix(20.901364,0,0,-20.901364,958.78921,-1455.6703)">
		<path style="fill:#333333;fill-opacity:1;fill-rule:evenodd;stroke:none" id="path764" inkscape:connector-curvature="0"
			d="m 0,0 c -0.172,2.333 -2.115,4.173 -4.492,4.173 -0.919,0 -1.773,-0.276 -2.487,-0.749 -0.513,2.004 -2.326,3.488 -4.49,3.488 -2.562,0 -4.64,-2.079 -4.64,-4.641 0,-0.189 0.015,-0.374 0.036,-0.558 -0.026,10e-4 -0.052,0.005 -0.079,0.005 -1.937,0 -3.508,-1.572 -3.508,-3.509 0,-1.877 1.478,-3.407 3.333,-3.498 l 0,-0.009 16.13,0 0,0.011 c 0.035,-0.001 0.069,-0.011 0.105,-0.011 1.467,0 2.655,1.189 2.655,2.654 C 2.563,-1.209 1.424,-0.049 0,0" />
	</g>
	<path style="fill:#050708;fill-opacity:1;stroke-width:0.2;stroke-linejoin:round" inkscape:connector-curvature="0"
		d="m 1561.4631,-1442.316 c 1.751,-14.0255 2.968,-28.2027 2.968,-42.7022 0,-14.4974 -1.217,-28.6745 -2.968,-42.7022 l 72.081,0 c 3.544,13.6669 5.615,27.9294 5.615,42.7022 0,14.7771 -2.071,29.0396 -5.615,42.7022 m -109.83,118.7356 c 12.811,-23.7659 22.547,-49.3445 29.443,-76.0334 l 62.965,0 c -20.476,35.3147 -53.186,62.5587 -92.408,76.0334 z m -5.423,-118.7356 -99.902,0 c -2.028,-13.985 -3.416,-28.16 -3.416,-42.7022 0,-14.5379 1.388,-28.7151 3.416,-42.7022 l 99.902,0 c 2.028,13.9871 3.437,28.1643 3.437,42.7022 0,14.5422 -1.409,28.7172 -3.437,42.7022 z m -49.983,127.3401 c -17.764,-25.6235 -31.642,-54.0823 -40.759,-84.6379 l 81.582,0 c -9.138,30.5556 -23.016,59.0144 -40.823,84.6379 z m -84.807,-255.4467 -62.964,0 c 20.454,-35.3574 53.164,-62.6441 92.408,-76.0718 -12.811,23.7616 -22.547,49.3424 -29.444,76.0718 z m -62.964,170.8088 62.964,0 c 6.897,26.7102 16.633,52.3123 29.444,76.074 -39.244,-13.4277 -71.954,-40.7144 -92.408,-76.074 z m -17.422,-42.7022 c -3.523,-13.6626 -5.573,-27.9251 -5.573,-42.7022 0,-14.7728 2.05,-29.0353 5.573,-42.7022 l 72.102,0 c -1.751,14.0277 -2.946,28.2048 -2.946,42.7022 0,14.4995 1.195,28.6767 2.946,42.7022 m 93.091,-212.7402 c 17.807,25.6213 31.685,54.0823 40.823,84.6336 l -81.582,0 c 9.117,-30.5513 22.995,-59.0123 40.759,-84.6336 z m 147.814,84.6336 -62.965,0 c -6.896,-26.6888 -16.632,-52.2675 -29.443,-76.0291 39.222,13.4726 71.932,40.7166 92.408,76.0291 z m -147.899,-128.1066 c -117.987,0 -213.383,95.591 -213.383,213.511 0,117.9243 95.396,213.511 213.383,213.511 118.007,0 213.639,-95.5867 213.639,-213.511 0,-117.92 -95.632,-213.511 -213.639,-213.511 z"
		id="path5411" />
	<path style="fill:#050708;fill-opacity:1;stroke-width:0.2;stroke-linejoin:round" inkscape:connector-curvature="0"
		d="m 738.62496,713.83737 -484.13133,0 c -82.26591,0 -148.9647,-66.69844 -148.9647,-148.96347 0,-82.26521 66.69879,-148.96364 148.9647,-148.96364 l 26.51556,0 c 24.35447,-85.91482 103.19475,-148.96365 196.92886,-148.96365 113.10189,0 204.82493,91.6871 204.82493,204.82492 l 0,18.62054 55.86198,0 c 61.70859,0 111.72222,50.0145 111.72222,111.72275 0,61.70805 -50.01363,111.72255 -111.72222,111.72255 z M 751.84611,417.25085 C 726.48522,289.10494 613.53334,192.46478 477.93805,192.46478 370.238,192.46478 276.94866,253.50255 230.32404,342.76904 118.30356,354.83517 31.047468,449.6132 31.047468,564.8739 c 0,123.4163 100.028992,223.4453 223.446162,223.4453 l 484.13133,0 c 102.82148,0 186.20544,-83.34505 186.20544,-186.20438 0,-98.31601 -76.45593,-177.97432 -172.98429,-184.86397 z"
		id="path5959" />
	<path style="fill:#050708;fill-opacity:1;stroke-width:0.2;stroke-linejoin:round" inkscape:connector-curvature="0"
		d="m 871.31585,-551.10016 -309.591,0 0,-341.61756 309.591,0 m -112.094,405.67085 -85.404,0 0,-21.3511 85.404,0 m 85.405,-448.37304 -256.213,0 c -35.379,0 -64.054,28.67453 -64.054,64.05329 l 0,384.31975 c 0,35.37877 28.675,64.05329 64.054,64.05329 l 256.213,0 c 35.379,0 64.053,-28.67452 64.053,-64.05329 l 0,-384.31975 c 0,-35.37876 -28.674,-64.05329 -64.053,-64.05329 z"
		id="path6105" />
	<path style="fill:#050708;fill-opacity:1;stroke-width:0.2;stroke-linejoin:round" inkscape:connector-curvature="0"
		d="m 322.61722,-545.69746 -320.2659965,0 0,-341.6176 320.2659965,0 m -160.133,427.022 c -17.679,0 -32.027,-14.348 -32.027,-32.0267 0,-17.6787 14.348,-32.0266 32.027,-32.0266 17.679,0 32.027,14.3479 32.027,32.0266 0,17.6787 -14.348,32.0267 -32.027,32.0267 z m 149.458,-491.0753 -298.915997,0 c -29.485,0 -53.377,23.8919 -53.377,53.3778 l 0,405.6708 c 0,29.4859 23.892,53.3778 53.377,53.3778 l 298.915997,0 c 29.486,0 53.378,-23.8919 53.378,-53.3778 l 0,-405.6708 c 0,-29.4859 -23.892,-53.3778 -53.378,-53.3778 z"
		id="path6107" />
</svg>
