<?xml version="1.0" encoding="UTF-8" standalone="no"?>
<!-- Generator: Adobe Illustrator 14.0.0, SVG Export Plug-In . SVG Version: 6.00 Build 43363)  -->

<svg
   xmlns:osb="http://www.openswatchbook.org/uri/2009/osb"
   xmlns:dc="http://purl.org/dc/elements/1.1/"
   xmlns:cc="http://creativecommons.org/ns#"
   xmlns:rdf="http://www.w3.org/1999/02/22-rdf-syntax-ns#"
   xmlns:svg="http://www.w3.org/2000/svg"
   xmlns="http://www.w3.org/2000/svg"
   xmlns:xlink="http://www.w3.org/1999/xlink"
   xmlns:sodipodi="http://sodipodi.sourceforge.net/DTD/sodipodi-0.dtd"
   xmlns:inkscape="http://www.inkscape.org/namespaces/inkscape"
   version="1.1"
   x="0px"
   y="0px"
   width="64"
   height="64"
   viewBox="0 0 64 64"
   enable-background="new 0 0 780 650"
   xml:space="preserve"
   id="svg4433"
   inkscape:version="0.91 r13725"
   sodipodi:docname="ic_action_search_settings.svg"><metadata
     id="metadata5887"><rdf:RDF><cc:Work
         rdf:about=""><dc:format>image/svg+xml</dc:format><dc:type
           rdf:resource="http://purl.org/dc/dcmitype/StillImage" /></cc:Work></rdf:RDF></metadata><defs
     id="defs5885"><linearGradient
       id="linearGradient19282"
       osb:paint="solid"
       gradientTransform="matrix(0,0,0,0,-671.66809,-436543.27)"><stop
         style="stop-color:#666666;stop-opacity:1;"
         offset="0"
         id="stop19284" /></linearGradient></defs><sodipodi:namedview
     pagecolor="#ffffff"
     bordercolor="#666666"
     borderopacity="1"
     objecttolerance="10"
     gridtolerance="10"
     guidetolerance="10"
     inkscape:pageopacity="0"
     inkscape:pageshadow="2"
     inkscape:window-width="1871"
     inkscape:window-height="1176"
     id="namedview5883"
     showgrid="false"
     inkscape:zoom="15.203125"
     inkscape:cx="32"
     inkscape:cy="29.368962"
     inkscape:window-x="49"
     inkscape:window-y="24"
     inkscape:window-maximized="1"
     inkscape:current-layer="svg4433" /><g
     id="Notification"
     transform="translate(-465.46203,-385.40339)" /><g
     id="Notification-5"
     transform="translate(-12.09472,-977.40958)" /><g
     transform="translate(-209.12091,-212.59188)"
     id="zoom-original"
     inkscape:label="#g6809"><g
       transform="matrix(0.996399,0,0,1,95.08523,-222.9354)"
       id="zoom_1_to_1"><use
         xlink:href="#g5796"
         transform="matrix(1,0,0,0.997925,-0.04089,0.477615)"
         x="0"
         y="0"
         id="use5816"
         width="1250"
         height="1250" /></g></g><g
     transform="matrix(0.99218952,0,0,1,-207.78421,-212.02938)"
     id="zoom-half-size"
     inkscape:label="#g6895"><use
       xlink:href="#g5796"
       height="1250"
       width="1250"
       id="use5818"
       y="0"
       x="0"
       transform="matrix(0.996399,0,0,0.997925,95.044487,-202.45778)" /></g><g
     id="g11074"
     transform="matrix(1,0,0,0.99801946,-184.62091,-693.37785)" /><g
     id="g11109"
     transform="translate(-184.62091,-714.45406)" /><g
     id="g11198"
     transform="translate(-184.62091,-714.45406)" /><g
     id="g11329"
     transform="translate(-164.62091,-714.45406)" /><g
     id="zoom-fit-selection"
     inkscape:label="#zoom_selection"
     transform="translate(-207.62091,-694.95406)"><g
       transform="translate(0,20)"
       id="g11156"
       inkscape:label="#g11150"><g
         transform="translate(0,19.96825)"
         id="g11158"><g
           transform="matrix(1,0,0,0.99801946,0,21.076212)"
           id="g11160" /></g></g></g><g
     id="g11563"
     inkscape:label="#zoom_select"
     transform="translate(-207.62091,-654.95406)"><g
       inkscape:label="#zoom_selection"
       id="g11565"><g
         inkscape:label="#g11150"
         id="g11567"
         transform="translate(0,20)"><g
           id="g11569"
           transform="translate(0,19.96825)"><g
             id="g11571"
             transform="matrix(1,0,0,0.99801946,0,21.076212)" /></g></g></g></g><g
     id="g11647"
     transform="translate(-121.62091,-614.45406)" /><g
     transform="matrix(-1,0,0,1,-82.62091,-614.45406)"
     id="g11659" /><rect
     style="opacity:0.3;fill:url(#linearGradient19282);fill-opacity:1;stroke:none"
     id="rect19405"
     width="0"
     height="1"
     x="-66.620911"
     y="-97.091881"
     ry="0" /><g
     id="g39728"
     transform="translate(-184.62091,-714.45406)" /><g
     transform="translate(-580.27739,-387.43563)"
     id="g39833" /><path
     style="color:#000000;font-style:normal;font-variant:normal;font-weight:normal;font-stretch:normal;font-size:medium;line-height:normal;font-family:Sans;-inkscape-font-specification:Sans;text-indent:0;text-align:start;text-decoration:none;text-decoration-line:none;letter-spacing:normal;word-spacing:normal;text-transform:none;direction:ltr;block-progression:tb;writing-mode:lr-tb;text-anchor:start;display:inline;overflow:visible;visibility:visible;fill:#c0c0c0;fill-opacity:1;fill-rule:nonzero;stroke:none;stroke-width:3;marker:none;enable-background:accumulate"
     d="M 53.147026,4.9458547 C 51.756227,4.2254452 50.204176,3.5286313 48.661083,3.278729 41.275227,2.0843374 35.471933,7.3168408 35.651531,14.951202 c 0.03753,1.595078 0.431544,3.209153 0.945795,4.71268 0.03697,0.106516 -4.426688,4.210798 -5.633051,5.312257 -0.166705,0.151894 -0.789109,0.71893 -0.789109,0.71893 C 28.802475,26.942254 18.949694,35.893494 18.842472,35.839849 17.431302,35.153418 15.898906,34.576595 14.34566,34.362391 6.9113797,33.337066 1.1595171,38.630583 1.5119417,46.234882 1.5853367,47.82359 2.0944128,49.470832 2.6442,50.957483 l 6.9154227,-6.480517 c 1.4365223,-1.331788 3.6973693,-0.800851 5.2750443,0.948237 l 2.809073,3.194902 c 1.555751,1.769361 1.974165,3.926799 0.540434,5.261821 l -7.014061,6.570351 c 1.411164,0.686473 2.943608,1.263261 4.496855,1.477465 7.434238,1.025317 13.098296,-4.36808 12.746056,-11.972177 -0.07339,-1.588707 -0.308279,-3.126201 -0.858073,-4.61281 l 2.367326,-2.156788 12.62571,-11.502918 2.367326,-2.156787 c 1.390756,0.720401 2.865963,1.127638 4.409001,1.377617 7.385855,1.194395 13.276968,-3.938314 13.09722,-11.57283 -0.03753,-1.595078 -0.431458,-3.209139 -0.945844,-4.712643 l -7.189857,6.370382 c -1.461802,1.303051 -3.52206,0.641449 -5.07781,-1.127911 L 46.398907,16.667969 C 44.865425,14.878652 44.595466,12.531211 46.0558,11.226446 l 7.09122,-6.2805497 z"
     id="path3908-6"
     inkscape:connector-curvature="0" /><rect
     style="fill:none;stroke:none"
     id="rect2999-6"
     width="66.949417"
     height="66.949432"
     x="6.1236548"
     y="3.0582078" /><use
     transform="translate(48.35119,-59.62603)"
     x="0"
     y="0"
     id="use5704"
     width="1250"
     height="1250"
     xlink:href="#rect4442" /><g
     style="fill:none"
     transform="matrix(0.90013776,0,0,0.8929798,-302.6647,-186.0671)"
     id="g14408" /><use
     x="0"
     y="0"
     id="use4586"
     transform="matrix(0.692914,0,0,0.70953374,-268.435,-359.46808)"
     width="1250"
     height="1250"
     xlink:href="#g5772" /><use
     x="0"
     y="0"
     id="use4586-2"
     transform="matrix(0.695835,0,0,0.741921,-284.44081,-364.88188)"
     width="1250"
     height="1250"
     xlink:href="#g5772" /><use
     transform="matrix(0.695835,0,0,0.741921,-240.44081,-367.38188)"
     x="0"
     y="0"
     id="use4589"
     width="1250"
     height="1250"
     xlink:href="#g5772" /><use
     transform="matrix(0.62897517,0,0,1.1624311,-165.6817,-469.60375)"
     x="0"
     y="0"
     id="use4592"
     width="1250"
     height="1250"
     xlink:href="#g5772" /><use
     transform="translate(587.38889,-340.79022)"
     x="0"
     y="0"
     id="use3738"
     width="1250"
     height="1250"
     xlink:href="#rect10675" /><use
     transform="translate(588.35529,-324.06771)"
     x="0"
     y="0"
     id="use4635"
     width="1250"
     height="1250"
     xlink:href="#use5758" /><use
     transform="translate(584.34039,-400.14538)"
     x="0"
     y="0"
     id="use9872"
     width="1250"
     height="1250"
     xlink:href="#g6043" /><use
     height="1250"
     width="1250"
     id="use10185"
     y="0"
     x="0"
     transform="translate(629.37219,-339.84368)"
     xlink:href="#rect10675" /><use
     transform="translate(617.37219,-327.84368)"
     x="0"
     y="0"
     id="use10187"
     width="1250"
     height="1250"
     xlink:href="#rect10675" /><use
     transform="translate(603.38894,-406.18758)"
     x="0"
     y="0"
     id="use9872-0"
     width="1250"
     height="1250"
     xlink:href="#g6043" /><use
     height="1250"
     width="1250"
     id="use10185-8"
     y="0"
     x="0"
     transform="translate(648.42074,-345.88588)"
     xlink:href="#rect10675" /><use
     transform="translate(636.42074,-333.88588)"
     x="0"
     y="0"
     id="use10187-8"
     width="1250"
     height="1250"
     xlink:href="#rect10675" /><use
     style="stroke:url(#linearGradient19282);stroke-opacity:1"
     height="1250"
     width="1250"
     transform="matrix(1.1377421,0,0,1.1399698,396.05605,-336.23633)"
     id="use5845-6"
     y="0"
     x="0"
     xlink:href="#use5756-0-3" /><use
     style="stroke:url(#linearGradient19282);stroke-opacity:1"
     height="1250"
     width="1250"
     transform="matrix(1.1377421,0,0,1.1399698,391.05636,-329.00786)"
     id="use5845-6-1"
     y="0"
     x="0"
     xlink:href="#use5756-0-3" /><use
     style="stroke:url(#linearGradient19282);stroke-opacity:1"
     height="1250"
     width="1250"
     transform="matrix(1.1377421,0,0,1.1399698,403.64911,-325.3576)"
     id="use5845-6-1-9"
     y="0"
     x="0"
     xlink:href="#use5756-0-3" /><g
     id="g31444"
     inkscape:label="#zoom_selection"
     transform="translate(-57.62091,-320.95406)"><g
       transform="translate(0,20)"
       id="g31446"
       inkscape:label="#g11150"><g
         transform="translate(0,19.96825)"
         id="g31448"><g
           transform="matrix(1,0,0,0.99801946,0,21.076212)"
           id="g31450" /></g></g></g><g
     id="g31456"
     transform="matrix(1.5578184,0,0,1.5408078,-79.790481,-776.56713)"
     style="fill:#c0c0c0;fill-opacity:1"><g
       id="g31458"
       style="fill:#c0c0c0;fill-opacity:1" /><g
       id="g31462"
       style="fill:#c0c0c0;fill-opacity:1"><path
         sodipodi:nodetypes="sssccccccsssssss"
         inkscape:connector-curvature="0"
         id="path31464"
         transform="matrix(0.99981264,0,0,1.0108506,-149.58222,73.479428)"
         d="m 231.5,450 c -3.04236,0 -5.5,2.48919 -5.5,5.53125 0,3.04204 2.45764,5.46875 5.5,5.46875 1.08216,0 2.08617,-0.30479 2.9375,-0.84375 l 2.77023,2.58664 c 0.38046,0.37956 0.96888,0.35397 1.34375,-0.0313 l 0.1875,-0.1875 c 0.37487,-0.38522 0.38046,-0.99545 0,-1.375 l -2.70773,-2.52414 c 0.61646,-0.8895 1,-1.92958 1,-3.09375 0,-3.042 -2.48889,-5.5312 -5.53125,-5.5312 z m 0.0313,2.0625 c 1.9417,0 3.5,1.55589 3.5,3.46875 0,1.91286 -1.5583,3.46875 -3.5,3.46875 -1.9417,0 -3.53125,-1.55589 -3.53125,-3.46875 0,-1.91286 1.58955,-3.46875 3.53125,-3.46875 z"
         style="fill:#c0c0c0;fill-opacity:1;stroke:none" /></g></g><text
     xml:space="preserve"
     style="font-size:40px;font-style:normal;font-weight:normal;line-height:125%;letter-spacing:0px;word-spacing:0px;fill:#000000;fill-opacity:1;stroke:none;font-family:Sans"
     x="-458.62091"
     y="35.908115"
     id="text19288"
     sodipodi:linespacing="125%"><tspan
       sodipodi:role="line"
       x="-458.62091"
       y="35.908115"
       id="tspan19292" /></text>
</svg>