<?xml version="1.0" encoding="UTF-8" standalone="no"?><!-- Generator: Adobe Illustrator 14.0.0, SVG Export Plug-In . SVG Version: 6.00 Build 43363)  -->

<svg xmlns:dc="http://purl.org/dc/elements/1.1/" xmlns:cc="http://creativecommons.org/ns#" xmlns:rdf="http://www.w3.org/1999/02/22-rdf-syntax-ns#" xmlns="http://www.w3.org/2000/svg" xmlns:sodipodi="http://sodipodi.sourceforge.net/DTD/sodipodi-0.dtd"
	xmlns:inkscape="http://www.inkscape.org/namespaces/inkscape" version="1.1" x="0px" y="0px" width="64" height="64" viewBox="0 0 64 64" enable-background="new 0 0 780 650" xml:space="preserve" id="svg4433" inkscape:version="0.48.5 r10040"
	sodipodi:docname="ic_action_close.svg"><metadata
     id="metadata5887"><rdf:RDF><cc:Work
         rdf:about=""><dc:format>image/svg+xml</dc:format><dc:type rdf:resource="http://purl.org/dc/dcmitype/StillImage" /></cc:Work></rdf:RDF></metadata>
	<defs id="defs5885"><style
       id="style2988"
       type="text/css">
    .fil0 {fill:#006C3B}
    .fil1 {fill:#77C06C}
   </style></defs>
	<sodipodi:namedview pagecolor="#ffffff" bordercolor="#666666" borderopacity="1" objecttolerance="10" gridtolerance="10" guidetolerance="10" inkscape:pageopacity="0" inkscape:pageshadow="2" inkscape:window-width="865" inkscape:window-height="767"
		id="namedview5883" showgrid="false" inkscape:zoom="4.6668011" inkscape:cx="34.788947" inkscape:cy="40.944928" inkscape:window-x="518" inkscape:window-y="188" inkscape:window-maximized="0" inkscape:current-layer="svg4433" />
	<g id="Cross" transform="matrix(1.2761887,0,0,1.2761887,-695.20332,-375.20526)"><path
       style="fill:#333333"
       inkscape:connector-curvature="0"
       d="m 579.088,319.255 12.91,-12.908 c 0.627,-0.627 0.627,-1.654 0,-2.281 l -6.84,-6.842 c -0.627,-0.625 -1.652,-0.625 -2.279,0 l -12.91,12.91 -12.91,-12.91 c -0.627,-0.625 -1.654,-0.625 -2.281,0 l -6.84,6.842 c -0.625,0.627 -0.625,1.654 0,2.281 l 12.91,12.908 -12.908,12.908 c -0.627,0.627 -0.627,1.654 0,2.281 l 6.84,6.842 c 0.627,0.625 1.654,0.625 2.281,0 l 12.908,-12.91 12.908,12.91 c 0.627,0.625 1.652,0.625 2.279,0 l 6.84,-6.842 c 0.627,-0.627 0.627,-1.654 0,-2.281 l -12.908,-12.908 z"
       id="path3654" /></g></svg>