<?xml version="1.0" encoding="UTF-8" standalone="no"?>
<!-- Generator: Adobe Illustrator 14.0.0, SVG Export Plug-In . SVG Version: 6.00 Build 43363)  -->

<svg
	xmlns:dc="http://purl.org/dc/elements/1.1/"
	xmlns:cc="http://creativecommons.org/ns#"
	xmlns:rdf="http://www.w3.org/1999/02/22-rdf-syntax-ns#"
	xmlns="http://www.w3.org/2000/svg"
	xmlns:xlink="http://www.w3.org/1999/xlink"
	xmlns:sodipodi="http://sodipodi.sourceforge.net/DTD/sodipodi-0.dtd"
	xmlns:inkscape="http://www.inkscape.org/namespaces/inkscape"
	version="1.1"
	x="0px"
	y="0px"
	width="128"
	height="128"
	viewBox="0 0 128 128"
	enable-background="new 0 0 780 650"
	xml:space="preserve"
	id="svg2"
	inkscape:version="0.48.5 r10040"
	sodipodi:docname="ic_tip_press.svg"><metadata
     id="metadata1456"><rdf:RDF><cc:Work
         rdf:about=""><dc:format>image/svg+xml</dc:format><dc:type
	rdf:resource="http://purl.org/dc/dcmitype/StillImage"/><dc:title/></cc:Work></rdf:RDF></metadata>
	<defs
		id="defs1454"><clipPath
       clipPathUnits="userSpaceOnUse"
       id="clipPath9180"><path
         sodipodi:type="arc"
         style="fill:#a9a9a9;fill-opacity:1;fill-rule:evenodd;stroke:none"
         id="path9182"
         sodipodi:cx="43.980995"
         sodipodi:cy="52.105968"
         sodipodi:rx="43.980995"
         sodipodi:ry="52.026299"
         d="m 87.96199,52.105968 a 43.980995,52.026299 0 1 1 -87.96199,0 43.980995,52.026299 0 1 1 87.96199,0 z"
         transform="matrix(1.3993902,0,0,1.1907217,3.486295,1.0575123)" /></clipPath>
		<clipPath
			clipPathUnits="userSpaceOnUse"
			id="clipPath9184"><path
         sodipodi:type="arc"
         style="fill:#a9a9a9;fill-opacity:1;fill-rule:evenodd;stroke:none"
         id="path9186"
         sodipodi:cx="43.980995"
         sodipodi:cy="52.105968"
         sodipodi:rx="43.980995"
         sodipodi:ry="52.026299"
         d="m 87.96199,52.105968 a 43.980995,52.026299 0 1 1 -87.96199,0 43.980995,52.026299 0 1 1 87.96199,0 z"
         transform="matrix(0.1815424,0,0,0.1544719,788.01368,700.63965)" /></clipPath>
		<radialGradient
			r="54.179893"
			fy="65.015877"
			fx="62.984127"
			cy="65.015877"
			cx="62.984127"
			gradientTransform="matrix(1.0578729,0,0,1.1181378,-2.9853126,-10.795733)"
			gradientUnits="userSpaceOnUse"
			id="radialGradient3065"
			xlink:href="#linearGradient2794"
			inkscape:collect="always"/>
		<linearGradient
			y2="12"
			x2="31.5"
			y1="63"
			x1="31.5"
			gradientTransform="matrix(0.89419004,0,0,0.50191997,9.6878701,-0.29570749)"
			gradientUnits="userSpaceOnUse"
			id="linearGradient3061"
			xlink:href="#linearGradient2816"
			inkscape:collect="always"/>
		<linearGradient
			id="linearGradient2794"><stop
         id="stop2796"
         offset="0"
         style="stop-color:#545454;stop-opacity:1" />
			<stop
				id="stop2804"
				offset="0.9464286"
				style="stop-color:#545454;stop-opacity:1"/>
			<stop
				id="stop2798"
				offset="1"
				style="stop-color:#c5c5c5;stop-opacity:0"/></linearGradient>
		<linearGradient
			id="linearGradient2816"><stop
         id="stop2818"
         offset="0"
         style="stop-color:#f07836;stop-opacity:1;" />
			<stop
				id="stop2820"
				offset="1"
				style="stop-color:white;stop-opacity:1"/></linearGradient></defs>
	<sodipodi:namedview
		pagecolor="#ffffff"
		bordercolor="#666666"
		borderopacity="1"
		objecttolerance="10"
		gridtolerance="10"
		guidetolerance="10"
		inkscape:pageopacity="0"
		inkscape:pageshadow="2"
		inkscape:window-width="1621"
		inkscape:window-height="848"
		id="namedview1452"
		showgrid="false"
		inkscape:zoom="1.9176002"
		inkscape:cx="47.336515"
		inkscape:cy="66.774907"
		inkscape:window-x="113"
		inkscape:window-y="39"
		inkscape:window-maximized="0"
		inkscape:current-layer="svg2"/>
	<g
		id="Help"
		transform="matrix(7.7083383,0,0,7.7083383,-6070.7897,-5399.7099)"
		clip-path="url(#clipPath9184)"><path
       d="m 509.778,597.159 c -12.427,0 -22.5,10.074 -22.5,22.5 0,12.428 10.073,22.5 22.5,22.5 12.427,0 22.5,-10.072 22.5,-22.5 -10e-4,-12.426 -10.073,-22.5 -22.5,-22.5 z m -0.559,36.414 c -1.676,0 -3.054,-1.379 -3.054,-3.055 0,-1.676 1.378,-3.053 3.054,-3.053 1.677,0 3.054,1.377 3.054,3.053 0,1.676 -1.377,3.055 -3.054,3.055 z m 2.904,-11.791 c -0.892,1.305 -0.594,3.129 -3.052,3.129 -1.602,0 -2.385,-1.305 -2.385,-2.496 0,-4.432 6.519,-5.436 6.519,-9.086 0,-2.012 -1.34,-3.203 -3.576,-3.203 -4.767,0 -2.905,4.916 -6.518,4.916 -1.304,0 -2.421,-0.783 -2.421,-2.271 0,-3.65 4.172,-6.891 8.714,-6.891 4.769,0 9.46,2.197 9.46,7.449 10e-4,4.842 -5.55,6.703 -6.741,8.453 z"
       id="path695"
       inkscape:connector-curvature="0"
       style="fill:#333333" /></g>
	<style
		id="style8"
		type="text/css">
      .Border { fill: lightGray; stroke: black; stroke-width: 4; }
      .Label { font-size:24; font-family:Arial; fill:black; }
   </style>
	<style
		id="style8-7"
		type="text/css">
      .Border { fill: lightGray; stroke: black; stroke-width: 4; }
      .Label { font-size:24; font-family:Arial; fill:black; }
   </style>
	<style
		id="style8-3"
		type="text/css">
      .Border { fill: lightGray; stroke: black; stroke-width: 4; }
      .Label { font-size:24; font-family:Arial; fill:black; }
   </style>
	<style
		id="style8-6"
		type="text/css">
      .Border { fill: lightGray; stroke: black; stroke-width: 4; }
      .Label { font-size:24; font-family:Arial; fill:black; }
   </style>
	<style
		type="text/css"
		id="style8-1">
      .Border { fill: lightGray; stroke: black; stroke-width: 4; }
      .Label { font-size:24; font-family:Arial; fill:black; }
   </style>
	<style
		type="text/css"
		id="style8-7-0">
      .Border { fill: lightGray; stroke: black; stroke-width: 4; }
      .Label { font-size:24; font-family:Arial; fill:black; }
   </style>
	<style
		type="text/css"
		id="style8-3-2">
      .Border { fill: lightGray; stroke: black; stroke-width: 4; }
      .Label { font-size:24; font-family:Arial; fill:black; }
   </style>
	<style
		type="text/css"
		id="style8-6-7">
      .Border { fill: lightGray; stroke: black; stroke-width: 4; }
      .Label { font-size:24; font-family:Arial; fill:black; }
   </style>
	<path
		style="fill:#333333;fill-opacity:1;fill-rule:evenodd;stroke:none"
		d=""
		id="path7612"
		inkscape:connector-curvature="0"
		clip-path="url(#clipPath9180)"/>
	<g
		id="g3098"
		transform="matrix(3.7120879,0,0,3.7120879,-111.41849,-132.08615)"><g
       transform="matrix(0.26741069,0,0,0.26741069,146.00649,110.96921)"
       id="g3578"><path
         sodipodi:nodetypes="sssss"
         d="m -369.96356,-243.01677 c -13.20479,0 -23.90825,10.74635 -23.90825,24.00168 0,13.25746 10.70346,24.00168 23.90825,24.00168 13.20372,0 23.90824,-10.74422 23.90824,-24.00168 0,-13.25533 -10.70452,-24.00168 -23.90824,-24.00168 z"
         id="path3008"
         inkscape:connector-curvature="0"
         style="fill:#1a1a1a;fill-opacity:1" /><g
		id="g3185"
		transform="matrix(2.8879765,0,0,2.8879765,-491.71044,-1357.179)"
		style="fill:#1a1a1a;fill-opacity:1"><g
           id="g3189"
           style="fill:#1a1a1a;fill-opacity:1"><path
             style="fill:#1a1a1a;fill-opacity:1"
             inkscape:connector-curvature="0"
             d="m 53.161,384.833 c -0.687,-0.659 -1.875,-0.635 -2.533,0.05 -0.333,0.345 -0.511,0.798 -0.502,1.277 0.009,0.479 0.203,0.927 0.542,1.252 0.124,0.124 3.04,3.061 3.071,6.843 0.019,2.271 -1.021,4.471 -3.089,6.541 -0.339,0.339 -0.525,0.789 -0.525,1.269 0,0.48 0.187,0.929 0.525,1.268 0.339,0.34 0.79,0.526 1.269,0.526 0.479,0 0.929,-0.187 1.269,-0.526 2.781,-2.782 4.173,-5.854 4.14,-9.131 -0.057,-5.355 -4,-9.208 -4.167,-9.369 z"
             id="path3191" /><path
		style="fill:#1a1a1a;fill-opacity:1"
		inkscape:connector-curvature="0"
		d="m 57.878,380.38 c -0.742,-0.715 -2.01,-0.687 -2.72,0.054 -0.735,0.765 -0.712,1.984 0.046,2.717 0.202,0.199 4.952,4.948 5.008,11.178 0.033,3.752 -1.659,7.363 -5.029,10.734 -0.364,0.363 -0.564,0.848 -0.564,1.362 0,0.514 0.201,0.996 0.564,1.358 0.364,0.365 0.848,0.565 1.361,0.565 0.515,0 0.999,-0.2 1.362,-0.565 4.135,-4.135 6.206,-8.682 6.156,-13.513 -0.083,-7.959 -5.935,-13.654 -6.184,-13.89 z"
		id="path3193"/></g></g></g>
		<g
			id="g3074"
			transform="matrix(0.26741069,0,0,0.26741069,146.00649,110.96921)"><path
         style="fill:#1a1a1a;fill-opacity:1"
         inkscape:connector-curvature="0"
         id="path3076"
         d="m -369.96356,-243.01677 c -13.20479,0 -23.90825,10.74635 -23.90825,24.00168 0,13.25746 10.70346,24.00168 23.90825,24.00168 13.20372,0 23.90824,-10.74422 23.90824,-24.00168 0,-13.25533 -10.70452,-24.00168 -23.90824,-24.00168 z"
         sodipodi:nodetypes="sssss" />
			<g
				style="fill:#1a1a1a;fill-opacity:1"
				transform="matrix(2.8879765,0,0,2.8879765,-491.71044,-1357.179)"
				id="g3078"><g
           style="fill:#1a1a1a;fill-opacity:1"
           id="g3080"><path
             id="path3082"
             d="m 53.161,384.833 c -0.687,-0.659 -1.875,-0.635 -2.533,0.05 -0.333,0.345 -0.511,0.798 -0.502,1.277 0.009,0.479 0.203,0.927 0.542,1.252 0.124,0.124 3.04,3.061 3.071,6.843 0.019,2.271 -1.021,4.471 -3.089,6.541 -0.339,0.339 -0.525,0.789 -0.525,1.269 0,0.48 0.187,0.929 0.525,1.268 0.339,0.34 0.79,0.526 1.269,0.526 0.479,0 0.929,-0.187 1.269,-0.526 2.781,-2.782 4.173,-5.854 4.14,-9.131 -0.057,-5.355 -4,-9.208 -4.167,-9.369 z"
             inkscape:connector-curvature="0"
             style="fill:#1a1a1a;fill-opacity:1" /><path
				id="path3084"
				d="m 57.878,380.38 c -0.742,-0.715 -2.01,-0.687 -2.72,0.054 -0.735,0.765 -0.712,1.984 0.046,2.717 0.202,0.199 4.952,4.948 5.008,11.178 0.033,3.752 -1.659,7.363 -5.029,10.734 -0.364,0.363 -0.564,0.848 -0.564,1.362 0,0.514 0.201,0.996 0.564,1.358 0.364,0.365 0.848,0.565 1.361,0.565 0.515,0 0.999,-0.2 1.362,-0.565 4.135,-4.135 6.206,-8.682 6.156,-13.513 -0.083,-7.959 -5.935,-13.654 -6.184,-13.89 z"
				inkscape:connector-curvature="0"
				style="fill:#1a1a1a;fill-opacity:1"/></g></g></g>
		<g
			transform="matrix(-0.26741069,0,0,0.26741069,-51.33346,110.96921)"
			id="g3086"><g
         id="g3090"
         transform="matrix(2.8879765,0,0,2.8879765,-491.71044,-1357.179)"
         style="fill:#1a1a1a;fill-opacity:1"><g
           id="g3092"
           style="fill:#1a1a1a;fill-opacity:1"><path
             style="fill:#1a1a1a;fill-opacity:1"
             inkscape:connector-curvature="0"
             d="m 53.161,384.833 c -0.687,-0.659 -1.875,-0.635 -2.533,0.05 -0.333,0.345 -0.511,0.798 -0.502,1.277 0.009,0.479 0.203,0.927 0.542,1.252 0.124,0.124 3.04,3.061 3.071,6.843 0.019,2.271 -1.021,4.471 -3.089,6.541 -0.339,0.339 -0.525,0.789 -0.525,1.269 0,0.48 0.187,0.929 0.525,1.268 0.339,0.34 0.79,0.526 1.269,0.526 0.479,0 0.929,-0.187 1.269,-0.526 2.781,-2.782 4.173,-5.854 4.14,-9.131 -0.057,-5.355 -4,-9.208 -4.167,-9.369 z"
             id="path3094" /><path
			style="fill:#1a1a1a;fill-opacity:1"
			inkscape:connector-curvature="0"
			d="m 57.878,380.38 c -0.742,-0.715 -2.01,-0.687 -2.72,0.054 -0.735,0.765 -0.712,1.984 0.046,2.717 0.202,0.199 4.952,4.948 5.008,11.178 0.033,3.752 -1.659,7.363 -5.029,10.734 -0.364,0.363 -0.564,0.848 -0.564,1.362 0,0.514 0.201,0.996 0.564,1.358 0.364,0.365 0.848,0.565 1.361,0.565 0.515,0 0.999,-0.2 1.362,-0.565 4.135,-4.135 6.206,-8.682 6.156,-13.513 -0.083,-7.959 -5.935,-13.654 -6.184,-13.89 z"
			id="path3096"/></g></g></g></g></svg>