<?xml version="1.0" encoding="UTF-8" standalone="no"?>
<!-- Generator: Adobe Illustrator 14.0.0, SVG Export Plug-In . SVG Version: 6.00 Build 43363)  -->

<svg
	xmlns:dc="http://purl.org/dc/elements/1.1/"
	xmlns:cc="http://creativecommons.org/ns#"
	xmlns:rdf="http://www.w3.org/1999/02/22-rdf-syntax-ns#"
	xmlns="http://www.w3.org/2000/svg"
	xmlns:xlink="http://www.w3.org/1999/xlink"
	xmlns:sodipodi="http://sodipodi.sourceforge.net/DTD/sodipodi-0.dtd"
	xmlns:inkscape="http://www.inkscape.org/namespaces/inkscape"
	version="1.1"
	x="0px"
	y="0px"
	width="128"
	height="128"
	viewBox="0 0 128 128"
	enable-background="new 0 0 780 650"
	xml:space="preserve"
	id="svg2"
	inkscape:version="0.48.5 r10040"
	sodipodi:docname="ic_tip_pinch_close_nw_se.svg"><metadata
     id="metadata1456"><rdf:RDF><cc:Work
         rdf:about=""><dc:format>image/svg+xml</dc:format><dc:type
	rdf:resource="http://purl.org/dc/dcmitype/StillImage"/></cc:Work></rdf:RDF></metadata>
	<defs
		id="defs1454"><clipPath
       clipPathUnits="userSpaceOnUse"
       id="clipPath9180"><path
         sodipodi:type="arc"
         style="fill:#a9a9a9;fill-opacity:1;fill-rule:evenodd;stroke:none"
         id="path9182"
         sodipodi:cx="43.980995"
         sodipodi:cy="52.105968"
         sodipodi:rx="43.980995"
         sodipodi:ry="52.026299"
         d="m 87.96199,52.105968 a 43.980995,52.026299 0 1 1 -87.96199,0 43.980995,52.026299 0 1 1 87.96199,0 z"
         transform="matrix(1.3993902,0,0,1.1907217,3.486295,1.0575123)" /></clipPath>
		<clipPath
			clipPathUnits="userSpaceOnUse"
			id="clipPath9184"><path
         sodipodi:type="arc"
         style="fill:#a9a9a9;fill-opacity:1;fill-rule:evenodd;stroke:none"
         id="path9186"
         sodipodi:cx="43.980995"
         sodipodi:cy="52.105968"
         sodipodi:rx="43.980995"
         sodipodi:ry="52.026299"
         d="m 87.96199,52.105968 a 43.980995,52.026299 0 1 1 -87.96199,0 43.980995,52.026299 0 1 1 87.96199,0 z"
         transform="matrix(0.1815424,0,0,0.1544719,788.01368,700.63965)" /></clipPath>
		<radialGradient
			r="54.179893"
			fy="65.015877"
			fx="62.984127"
			cy="65.015877"
			cx="62.984127"
			gradientTransform="matrix(1.0578729,0,0,1.1181378,-2.9853126,-10.795733)"
			gradientUnits="userSpaceOnUse"
			id="radialGradient3065"
			xlink:href="#linearGradient2794"
			inkscape:collect="always"/>
		<linearGradient
			y2="12"
			x2="31.5"
			y1="63"
			x1="31.5"
			gradientTransform="matrix(0.89419004,0,0,0.50191997,9.6878701,-0.29570749)"
			gradientUnits="userSpaceOnUse"
			id="linearGradient3061"
			xlink:href="#linearGradient2816"
			inkscape:collect="always"/>
		<linearGradient
			id="linearGradient2794"><stop
         id="stop2796"
         offset="0"
         style="stop-color:#545454;stop-opacity:1" />
			<stop
				id="stop2804"
				offset="0.9464286"
				style="stop-color:#545454;stop-opacity:1"/>
			<stop
				id="stop2798"
				offset="1"
				style="stop-color:#c5c5c5;stop-opacity:0"/></linearGradient>
		<linearGradient
			id="linearGradient2816"><stop
         id="stop2818"
         offset="0"
         style="stop-color:#f07836;stop-opacity:1;" />
			<stop
				id="stop2820"
				offset="1"
				style="stop-color:white;stop-opacity:1"/></linearGradient>
		<clipPath
			clipPathUnits="userSpaceOnUse"
			id="clipPath9180-7"><path
         sodipodi:type="arc"
         style="fill:#a9a9a9;fill-opacity:1;fill-rule:evenodd;stroke:none"
         id="path9182-4"
         sodipodi:cx="43.980995"
         sodipodi:cy="52.105968"
         sodipodi:rx="43.980995"
         sodipodi:ry="52.026299"
         d="m 87.96199,52.105968 a 43.980995,52.026299 0 1 1 -87.96199,0 43.980995,52.026299 0 1 1 87.96199,0 z"
         transform="matrix(1.3993902,0,0,1.1907217,3.486295,1.0575123)" /></clipPath>
		<clipPath
			clipPathUnits="userSpaceOnUse"
			id="clipPath9184-02"><path
         sodipodi:type="arc"
         style="fill:#a9a9a9;fill-opacity:1;fill-rule:evenodd;stroke:none"
         id="path9186-4"
         sodipodi:cx="43.980995"
         sodipodi:cy="52.105968"
         sodipodi:rx="43.980995"
         sodipodi:ry="52.026299"
         d="m 87.96199,52.105968 a 43.980995,52.026299 0 1 1 -87.96199,0 43.980995,52.026299 0 1 1 87.96199,0 z"
         transform="matrix(0.1815424,0,0,0.1544719,788.01368,700.63965)" /></clipPath>
		<radialGradient
			r="54.179893"
			fy="65.015877"
			fx="62.984127"
			cy="65.015877"
			cx="62.984127"
			gradientTransform="matrix(1.0578729,0,0,1.1181378,-2.9853126,-10.795733)"
			gradientUnits="userSpaceOnUse"
			id="radialGradient3065-1"
			xlink:href="#linearGradient2794-6"
			inkscape:collect="always"/>
		<linearGradient
			y2="12"
			x2="31.5"
			y1="63"
			x1="31.5"
			gradientTransform="matrix(0.89419004,0,0,0.50191997,9.6878701,-0.29570749)"
			gradientUnits="userSpaceOnUse"
			id="linearGradient3061-6"
			xlink:href="#linearGradient2816-5"
			inkscape:collect="always"/>
		<linearGradient
			id="linearGradient2794-6"><stop
         id="stop2796-1"
         offset="0"
         style="stop-color:#545454;stop-opacity:1" />
			<stop
				id="stop2804-4"
				offset="0.9464286"
				style="stop-color:#545454;stop-opacity:1"/>
			<stop
				id="stop2798-4"
				offset="1"
				style="stop-color:#c5c5c5;stop-opacity:0"/></linearGradient>
		<linearGradient
			id="linearGradient2816-5"><stop
         id="stop2818-2"
         offset="0"
         style="stop-color:#f07836;stop-opacity:1;" />
			<stop
				id="stop2820-5"
				offset="1"
				style="stop-color:white;stop-opacity:1"/></linearGradient>
		<clipPath
			clipPathUnits="userSpaceOnUse"
			id="clipPath9180-4"><path
         sodipodi:type="arc"
         style="fill:#a9a9a9;fill-opacity:1;fill-rule:evenodd;stroke:none"
         id="path9182-5"
         sodipodi:cx="43.980995"
         sodipodi:cy="52.105968"
         sodipodi:rx="43.980995"
         sodipodi:ry="52.026299"
         d="m 87.96199,52.105968 a 43.980995,52.026299 0 1 1 -87.96199,0 43.980995,52.026299 0 1 1 87.96199,0 z"
         transform="matrix(1.3993902,0,0,1.1907217,3.486295,1.0575123)" /></clipPath>
		<clipPath
			clipPathUnits="userSpaceOnUse"
			id="clipPath9184-0"><path
         sodipodi:type="arc"
         style="fill:#a9a9a9;fill-opacity:1;fill-rule:evenodd;stroke:none"
         id="path9186-1"
         sodipodi:cx="43.980995"
         sodipodi:cy="52.105968"
         sodipodi:rx="43.980995"
         sodipodi:ry="52.026299"
         d="m 87.96199,52.105968 a 43.980995,52.026299 0 1 1 -87.96199,0 43.980995,52.026299 0 1 1 87.96199,0 z"
         transform="matrix(0.1815424,0,0,0.1544719,788.01368,700.63965)" /></clipPath>
		<radialGradient
			r="54.179893"
			fy="65.015877"
			fx="62.984127"
			cy="65.015877"
			cx="62.984127"
			gradientTransform="matrix(1.0578729,0,0,1.1181378,-2.9853126,-10.795733)"
			gradientUnits="userSpaceOnUse"
			id="radialGradient3065-4"
			xlink:href="#linearGradient2794-9"
			inkscape:collect="always"/>
		<linearGradient
			y2="12"
			x2="31.5"
			y1="63"
			x1="31.5"
			gradientTransform="matrix(0.89419004,0,0,0.50191997,9.6878701,-0.29570749)"
			gradientUnits="userSpaceOnUse"
			id="linearGradient3061-9"
			xlink:href="#linearGradient2816-6"
			inkscape:collect="always"/>
		<linearGradient
			id="linearGradient2794-9"><stop
         id="stop2796-7"
         offset="0"
         style="stop-color:#545454;stop-opacity:1" />
			<stop
				id="stop2804-8"
				offset="0.9464286"
				style="stop-color:#545454;stop-opacity:1"/>
			<stop
				id="stop2798-2"
				offset="1"
				style="stop-color:#c5c5c5;stop-opacity:0"/></linearGradient>
		<linearGradient
			id="linearGradient2816-6"><stop
         id="stop2818-1"
         offset="0"
         style="stop-color:#f07836;stop-opacity:1;" />
			<stop
				id="stop2820-4"
				offset="1"
				style="stop-color:white;stop-opacity:1"/></linearGradient>
		<linearGradient
			id="linearGradient2816-8"><stop
         style="stop-color:#f07836;stop-opacity:1;"
         offset="0"
         id="stop2818-7" />
			<stop
				style="stop-color:white;stop-opacity:1"
				offset="1"
				id="stop2820-2"/></linearGradient>
		<linearGradient
			id="linearGradient2794-4"><stop
         style="stop-color:#545454;stop-opacity:1"
         offset="0"
         id="stop2796-15" />
			<stop
				style="stop-color:#545454;stop-opacity:1"
				offset="0.9464286"
				id="stop2804-40"/>
			<stop
				style="stop-color:#c5c5c5;stop-opacity:0"
				offset="1"
				id="stop2798-3"/></linearGradient>
		<linearGradient
			inkscape:collect="always"
			xlink:href="#linearGradient2816-8"
			id="linearGradient3061-7"
			gradientUnits="userSpaceOnUse"
			gradientTransform="matrix(0.89419004,0,0,0.50191997,9.6878701,-0.29570749)"
			x1="31.5"
			y1="63"
			x2="31.5"
			y2="12"/>
		<radialGradient
			inkscape:collect="always"
			xlink:href="#linearGradient2794-4"
			id="radialGradient3065-10"
			gradientUnits="userSpaceOnUse"
			gradientTransform="matrix(1.0578729,0,0,1.1181378,-2.9853126,-10.795733)"
			cx="62.984127"
			cy="65.015877"
			fx="62.984127"
			fy="65.015877"
			r="54.179893"/>
		<clipPath
			id="clipPath9184-9"
			clipPathUnits="userSpaceOnUse"><path
         transform="matrix(0.1815424,0,0,0.1544719,788.01368,700.63965)"
         d="m 87.96199,52.105968 a 43.980995,52.026299 0 1 1 -87.96199,0 43.980995,52.026299 0 1 1 87.96199,0 z"
         sodipodi:ry="52.026299"
         sodipodi:rx="43.980995"
         sodipodi:cy="52.105968"
         sodipodi:cx="43.980995"
         id="path9186-9"
         style="fill:#a9a9a9;fill-opacity:1;fill-rule:evenodd;stroke:none"
         sodipodi:type="arc" /></clipPath>
		<clipPath
			id="clipPath9180-2"
			clipPathUnits="userSpaceOnUse"><path
         transform="matrix(1.3993902,0,0,1.1907217,3.486295,1.0575123)"
         d="m 87.96199,52.105968 a 43.980995,52.026299 0 1 1 -87.96199,0 43.980995,52.026299 0 1 1 87.96199,0 z"
         sodipodi:ry="52.026299"
         sodipodi:rx="43.980995"
         sodipodi:cy="52.105968"
         sodipodi:cx="43.980995"
         id="path9182-44"
         style="fill:#a9a9a9;fill-opacity:1;fill-rule:evenodd;stroke:none"
         sodipodi:type="arc" /></clipPath></defs>
	<sodipodi:namedview
		pagecolor="#ffffff"
		bordercolor="#666666"
		borderopacity="1"
		objecttolerance="10"
		gridtolerance="10"
		guidetolerance="10"
		inkscape:pageopacity="0"
		inkscape:pageshadow="2"
		inkscape:window-width="447"
		inkscape:window-height="487"
		id="namedview1452"
		showgrid="false"
		inkscape:zoom="1.3183594"
		inkscape:cx="96.132276"
		inkscape:cy="75.651476"
		inkscape:window-x="604"
		inkscape:window-y="503"
		inkscape:window-maximized="0"
		inkscape:current-layer="svg2"/>
	<g
		id="Help"
		transform="matrix(7.7083383,0,0,7.7083383,-6070.7897,-5399.7099)"
		clip-path="url(#clipPath9184)"><path
       d="m 509.778,597.159 c -12.427,0 -22.5,10.074 -22.5,22.5 0,12.428 10.073,22.5 22.5,22.5 12.427,0 22.5,-10.072 22.5,-22.5 -10e-4,-12.426 -10.073,-22.5 -22.5,-22.5 z m -0.559,36.414 c -1.676,0 -3.054,-1.379 -3.054,-3.055 0,-1.676 1.378,-3.053 3.054,-3.053 1.677,0 3.054,1.377 3.054,3.053 0,1.676 -1.377,3.055 -3.054,3.055 z m 2.904,-11.791 c -0.892,1.305 -0.594,3.129 -3.052,3.129 -1.602,0 -2.385,-1.305 -2.385,-2.496 0,-4.432 6.519,-5.436 6.519,-9.086 0,-2.012 -1.34,-3.203 -3.576,-3.203 -4.767,0 -2.905,4.916 -6.518,4.916 -1.304,0 -2.421,-0.783 -2.421,-2.271 0,-3.65 4.172,-6.891 8.714,-6.891 4.769,0 9.46,2.197 9.46,7.449 10e-4,4.842 -5.55,6.703 -6.741,8.453 z"
       id="path695"
       inkscape:connector-curvature="0"
       style="fill:#333333" /></g>
	<style
		id="style8"
		type="text/css">
      .Border { fill: lightGray; stroke: black; stroke-width: 4; }
      .Label { font-size:24; font-family:Arial; fill:black; }
   </style>
	<style
		id="style8-7"
		type="text/css">
      .Border { fill: lightGray; stroke: black; stroke-width: 4; }
      .Label { font-size:24; font-family:Arial; fill:black; }
   </style>
	<style
		id="style8-3"
		type="text/css">
      .Border { fill: lightGray; stroke: black; stroke-width: 4; }
      .Label { font-size:24; font-family:Arial; fill:black; }
   </style>
	<style
		id="style8-6"
		type="text/css">
      .Border { fill: lightGray; stroke: black; stroke-width: 4; }
      .Label { font-size:24; font-family:Arial; fill:black; }
   </style>
	<style
		type="text/css"
		id="style8-1">
      .Border { fill: lightGray; stroke: black; stroke-width: 4; }
      .Label { font-size:24; font-family:Arial; fill:black; }
   </style>
	<style
		type="text/css"
		id="style8-7-0">
      .Border { fill: lightGray; stroke: black; stroke-width: 4; }
      .Label { font-size:24; font-family:Arial; fill:black; }
   </style>
	<style
		type="text/css"
		id="style8-3-2">
      .Border { fill: lightGray; stroke: black; stroke-width: 4; }
      .Label { font-size:24; font-family:Arial; fill:black; }
   </style>
	<style
		type="text/css"
		id="style8-6-7">
      .Border { fill: lightGray; stroke: black; stroke-width: 4; }
      .Label { font-size:24; font-family:Arial; fill:black; }
   </style>
	<path
		style="fill:#333333;fill-opacity:1;fill-rule:evenodd;stroke:none"
		d=""
		id="path7612"
		inkscape:connector-curvature="0"
		clip-path="url(#clipPath9180)"/>
	<style
		type="text/css"
		id="style8-28">
      .Border { fill: lightGray; stroke: black; stroke-width: 4; }
      .Label { font-size:24; font-family:Arial; fill:black; }
   </style>
	<style
		type="text/css"
		id="style8-7-1">
      .Border { fill: lightGray; stroke: black; stroke-width: 4; }
      .Label { font-size:24; font-family:Arial; fill:black; }
   </style>
	<style
		type="text/css"
		id="style8-3-22">
      .Border { fill: lightGray; stroke: black; stroke-width: 4; }
      .Label { font-size:24; font-family:Arial; fill:black; }
   </style>
	<style
		type="text/css"
		id="style8-6-2">
      .Border { fill: lightGray; stroke: black; stroke-width: 4; }
      .Label { font-size:24; font-family:Arial; fill:black; }
   </style>
	<style
		id="style8-1-7"
		type="text/css">
      .Border { fill: lightGray; stroke: black; stroke-width: 4; }
      .Label { font-size:24; font-family:Arial; fill:black; }
   </style>
	<style
		id="style8-7-0-6"
		type="text/css">
      .Border { fill: lightGray; stroke: black; stroke-width: 4; }
      .Label { font-size:24; font-family:Arial; fill:black; }
   </style>
	<style
		id="style8-3-2-01"
		type="text/css">
      .Border { fill: lightGray; stroke: black; stroke-width: 4; }
      .Label { font-size:24; font-family:Arial; fill:black; }
   </style>
	<style
		id="style8-6-7-0"
		type="text/css">
      .Border { fill: lightGray; stroke: black; stroke-width: 4; }
      .Label { font-size:24; font-family:Arial; fill:black; }
   </style>
	<style
		id="style8-2"
		type="text/css">
      .Border { fill: lightGray; stroke: black; stroke-width: 4; }
      .Label { font-size:24; font-family:Arial; fill:black; }
   </style>
	<style
		id="style8-7-7"
		type="text/css">
      .Border { fill: lightGray; stroke: black; stroke-width: 4; }
      .Label { font-size:24; font-family:Arial; fill:black; }
   </style>
	<style
		id="style8-3-1"
		type="text/css">
      .Border { fill: lightGray; stroke: black; stroke-width: 4; }
      .Label { font-size:24; font-family:Arial; fill:black; }
   </style>
	<style
		id="style8-6-79"
		type="text/css">
      .Border { fill: lightGray; stroke: black; stroke-width: 4; }
      .Label { font-size:24; font-family:Arial; fill:black; }
   </style>
	<style
		type="text/css"
		id="style8-1-5">
      .Border { fill: lightGray; stroke: black; stroke-width: 4; }
      .Label { font-size:24; font-family:Arial; fill:black; }
   </style>
	<style
		type="text/css"
		id="style8-7-0-4">
      .Border { fill: lightGray; stroke: black; stroke-width: 4; }
      .Label { font-size:24; font-family:Arial; fill:black; }
   </style>
	<style
		type="text/css"
		id="style8-3-2-5">
      .Border { fill: lightGray; stroke: black; stroke-width: 4; }
      .Label { font-size:24; font-family:Arial; fill:black; }
   </style>
	<style
		type="text/css"
		id="style8-6-7-5">
      .Border { fill: lightGray; stroke: black; stroke-width: 4; }
      .Label { font-size:24; font-family:Arial; fill:black; }
   </style>
	<style
		id="style8-8"
		type="text/css">
      .Border { fill: lightGray; stroke: black; stroke-width: 4; }
      .Label { font-size:24; font-family:Arial; fill:black; }
   </style>
	<style
		id="style8-7-6"
		type="text/css">
      .Border { fill: lightGray; stroke: black; stroke-width: 4; }
      .Label { font-size:24; font-family:Arial; fill:black; }
   </style>
	<style
		id="style8-3-21"
		type="text/css">
      .Border { fill: lightGray; stroke: black; stroke-width: 4; }
      .Label { font-size:24; font-family:Arial; fill:black; }
   </style>
	<style
		id="style8-6-4"
		type="text/css">
      .Border { fill: lightGray; stroke: black; stroke-width: 4; }
      .Label { font-size:24; font-family:Arial; fill:black; }
   </style>
	<style
		type="text/css"
		id="style8-1-4">
      .Border { fill: lightGray; stroke: black; stroke-width: 4; }
      .Label { font-size:24; font-family:Arial; fill:black; }
   </style>
	<style
		type="text/css"
		id="style8-7-0-7">
      .Border { fill: lightGray; stroke: black; stroke-width: 4; }
      .Label { font-size:24; font-family:Arial; fill:black; }
   </style>
	<style
		type="text/css"
		id="style8-3-2-0">
      .Border { fill: lightGray; stroke: black; stroke-width: 4; }
      .Label { font-size:24; font-family:Arial; fill:black; }
   </style>
	<style
		type="text/css"
		id="style8-6-7-1">
      .Border { fill: lightGray; stroke: black; stroke-width: 4; }
      .Label { font-size:24; font-family:Arial; fill:black; }
   </style>
	<g
		id="Help-86"
		transform="matrix(7.7083383,0,0,7.7083383,-6048.3739,-5545.9103)"
		clip-path="url(#clipPath9184-9)"><path
       d="m 509.778,597.159 c -12.427,0 -22.5,10.074 -22.5,22.5 0,12.428 10.073,22.5 22.5,22.5 12.427,0 22.5,-10.072 22.5,-22.5 -10e-4,-12.426 -10.073,-22.5 -22.5,-22.5 z m -0.559,36.414 c -1.676,0 -3.054,-1.379 -3.054,-3.055 0,-1.676 1.378,-3.053 3.054,-3.053 1.677,0 3.054,1.377 3.054,3.053 0,1.676 -1.377,3.055 -3.054,3.055 z m 2.904,-11.791 c -0.892,1.305 -0.594,3.129 -3.052,3.129 -1.602,0 -2.385,-1.305 -2.385,-2.496 0,-4.432 6.519,-5.436 6.519,-9.086 0,-2.012 -1.34,-3.203 -3.576,-3.203 -4.767,0 -2.905,4.916 -6.518,4.916 -1.304,0 -2.421,-0.783 -2.421,-2.271 0,-3.65 4.172,-6.891 8.714,-6.891 4.769,0 9.46,2.197 9.46,7.449 10e-4,4.842 -5.55,6.703 -6.741,8.453 z"
       id="path695-58"
       inkscape:connector-curvature="0"
       style="fill:#333333" /></g>
	<path
		style="fill:#333333;fill-opacity:1;fill-rule:evenodd;stroke:none"
		d=""
		id="path7612-41"
		inkscape:connector-curvature="0"
		clip-path="url(#clipPath9180-2)"
		transform="translate(22.415827,-146.20037)"/>
	<g
		id="Help-8"
		transform="matrix(7.7083383,0,0,7.7083383,-6573.4096,-5764.7865)"
		clip-path="url(#clipPath9184-0)"><path
       d="m 509.778,597.159 c -12.427,0 -22.5,10.074 -22.5,22.5 0,12.428 10.073,22.5 22.5,22.5 12.427,0 22.5,-10.072 22.5,-22.5 -10e-4,-12.426 -10.073,-22.5 -22.5,-22.5 z m -0.559,36.414 c -1.676,0 -3.054,-1.379 -3.054,-3.055 0,-1.676 1.378,-3.053 3.054,-3.053 1.677,0 3.054,1.377 3.054,3.053 0,1.676 -1.377,3.055 -3.054,3.055 z m 2.904,-11.791 c -0.892,1.305 -0.594,3.129 -3.052,3.129 -1.602,0 -2.385,-1.305 -2.385,-2.496 0,-4.432 6.519,-5.436 6.519,-9.086 0,-2.012 -1.34,-3.203 -3.576,-3.203 -4.767,0 -2.905,4.916 -6.518,4.916 -1.304,0 -2.421,-0.783 -2.421,-2.271 0,-3.65 4.172,-6.891 8.714,-6.891 4.769,0 9.46,2.197 9.46,7.449 10e-4,4.842 -5.55,6.703 -6.741,8.453 z"
       id="path695-7"
       inkscape:connector-curvature="0"
       style="fill:#333333" /></g>
	<path
		style="fill:#333333;fill-opacity:1;fill-rule:evenodd;stroke:none"
		d=""
		id="path7612-6"
		inkscape:connector-curvature="0"
		clip-path="url(#clipPath9180-4)"
		transform="translate(-502.61985,-365.07659)"/>
	<g
		id="g3340"
		transform="matrix(2.8515413,-2.9848251,2.9848251,2.8515413,1584.1904,-878.58861)"><path
       style="fill:#808080;fill-opacity:1"
       inkscape:connector-curvature="0"
       id="path3344"
       d="m -419.33738,-126.39092 c -3.5311,0 -6.39332,2.87369 -6.39332,6.41831 0,3.54518 2.86222,6.4183 6.39332,6.4183 3.53082,0 6.39332,-2.87312 6.39332,-6.4183 0,-3.54462 -2.8625,-6.41831 -6.39332,-6.41831 z"
       sodipodi:nodetypes="sssss" />
		<path
			sodipodi:nodetypes="sssss"
			d="m -419.33738,-122.39092 c -3.5311,0 -6.39332,2.87369 -6.39332,6.41831 0,3.54518 2.86222,6.4183 6.39332,6.4183 3.53082,0 6.39332,-2.87312 6.39332,-6.4183 0,-3.54462 -2.8625,-6.41831 -6.39332,-6.41831 z"
			id="path3346"
			inkscape:connector-curvature="0"
			style="fill:#1a1a1a;fill-opacity:1"/></g>
	<g
		transform="matrix(0.53874478,0.5267715,-0.5267715,0.53874478,55.198903,-73.117803)"
		id="g3348"><g
       id="g3350"
       transform="matrix(7.7083383,0,0,7.7083383,-6070.7897,-5399.7099)"
       clip-path="url(#clipPath9184-02)"><path
         d="m 509.778,597.159 c -12.427,0 -22.5,10.074 -22.5,22.5 0,12.428 10.073,22.5 22.5,22.5 12.427,0 22.5,-10.072 22.5,-22.5 -10e-4,-12.426 -10.073,-22.5 -22.5,-22.5 z m -0.559,36.414 c -1.676,0 -3.054,-1.379 -3.054,-3.055 0,-1.676 1.378,-3.053 3.054,-3.053 1.677,0 3.054,1.377 3.054,3.053 0,1.676 -1.377,3.055 -3.054,3.055 z m 2.904,-11.791 c -0.892,1.305 -0.594,3.129 -3.052,3.129 -1.602,0 -2.385,-1.305 -2.385,-2.496 0,-4.432 6.519,-5.436 6.519,-9.086 0,-2.012 -1.34,-3.203 -3.576,-3.203 -4.767,0 -2.905,4.916 -6.518,4.916 -1.304,0 -2.421,-0.783 -2.421,-2.271 0,-3.65 4.172,-6.891 8.714,-6.891 4.769,0 9.46,2.197 9.46,7.449 10e-4,4.842 -5.55,6.703 -6.741,8.453 z"
         id="path3352"
         inkscape:connector-curvature="0"
         style="fill:#333333" /></g>
		<path
			style="fill:#333333;fill-opacity:1;fill-rule:evenodd;stroke:none"
			d=""
			id="path3354"
			inkscape:connector-curvature="0"
			clip-path="url(#clipPath9180-7)"/>
		<g
			style="fill:#1a1a1a;fill-opacity:1"
			id="g3358"
			transform="matrix(1.0879389,0,0,1.0879389,-321.84918,-216.37885)"><polygon
         id="polygon3360"
         points="389.714,244.618 400.767,255.672 368.154,255.672 368.154,262.912 400.769,262.912 389.714,273.97 394.097,278.349 413.154,259.292 394.097,240.235 "
         style="fill:#1a1a1a;fill-opacity:1" /></g></g>
	<g
		transform="matrix(-3.0382987,2.9679697,-2.9679697,-3.0382987,-1533.3627,978.65544)"
		id="g3443"><path
       sodipodi:nodetypes="sssss"
       d="m -419.33738,-126.39092 c -3.5311,0 -6.39332,2.87369 -6.39332,6.41831 0,3.54518 2.86222,6.4183 6.39332,6.4183 3.53082,0 6.39332,-2.87312 6.39332,-6.4183 0,-3.54462 -2.8625,-6.41831 -6.39332,-6.41831 z"
       id="path3447"
       inkscape:connector-curvature="0"
       style="fill:#808080;fill-opacity:1" />
		<path
			style="fill:#1a1a1a;fill-opacity:1"
			inkscape:connector-curvature="0"
			id="path3449"
			d="m -419.33738,-122.39092 c -3.5311,0 -6.39332,2.87369 -6.39332,6.41831 0,3.54518 2.86222,6.4183 6.39332,6.4183 3.53082,0 6.39332,-2.87312 6.39332,-6.4183 0,-3.54462 -2.8625,-6.41831 -6.39332,-6.41831 z"
			sodipodi:nodetypes="sssss"/></g>
	<g
		id="g3475"
		transform="matrix(-0.51534454,-0.50389132,0.50389132,-0.51534454,132.40645,138.8966)"><g
       clip-path="url(#clipPath9184-02)"
       transform="matrix(7.7083383,0,0,7.7083383,-6070.7897,-5399.7099)"
       id="g3477"><path
         style="fill:#333333"
         inkscape:connector-curvature="0"
         id="path3479"
         d="m 509.778,597.159 c -12.427,0 -22.5,10.074 -22.5,22.5 0,12.428 10.073,22.5 22.5,22.5 12.427,0 22.5,-10.072 22.5,-22.5 -10e-4,-12.426 -10.073,-22.5 -22.5,-22.5 z m -0.559,36.414 c -1.676,0 -3.054,-1.379 -3.054,-3.055 0,-1.676 1.378,-3.053 3.054,-3.053 1.677,0 3.054,1.377 3.054,3.053 0,1.676 -1.377,3.055 -3.054,3.055 z m 2.904,-11.791 c -0.892,1.305 -0.594,3.129 -3.052,3.129 -1.602,0 -2.385,-1.305 -2.385,-2.496 0,-4.432 6.519,-5.436 6.519,-9.086 0,-2.012 -1.34,-3.203 -3.576,-3.203 -4.767,0 -2.905,4.916 -6.518,4.916 -1.304,0 -2.421,-0.783 -2.421,-2.271 0,-3.65 4.172,-6.891 8.714,-6.891 4.769,0 9.46,2.197 9.46,7.449 10e-4,4.842 -5.55,6.703 -6.741,8.453 z" /></g>
		<path
			clip-path="url(#clipPath9180-7)"
			inkscape:connector-curvature="0"
			id="path3481"
			d=""
			style="fill:#333333;fill-opacity:1;fill-rule:evenodd;stroke:none"/>
		<g
			transform="matrix(1.0879389,0,0,1.0879389,-316.6655,-214.08799)"
			id="g3483"
			style="fill:#1a1a1a;fill-opacity:1"><polygon
         style="fill:#1a1a1a;fill-opacity:1"
         points="400.769,262.912 389.714,273.97 394.097,278.349 413.154,259.292 394.097,240.235 389.714,244.618 400.767,255.672 368.154,255.672 368.154,262.912 "
         id="polygon3485"
         transform="matrix(1.045407,0,0,1.045407,-21.921591,-11.726592)" /></g></g></svg>